<svg width="443" height="163" viewBox="0 0 443 163" fill="none" xmlns="http://www.w3.org/2000/svg">
<path d="M10.4752 118.825H116.379C117.047 118.832 117.707 118.977 118.319 119.25C118.93 119.523 119.48 119.918 119.936 120.413C120.391 120.907 120.743 121.49 120.969 122.127C121.194 122.763 121.29 123.438 121.25 124.113C118.661 160.283 89.0277 160.283 63.4272 160.283C37.8268 160.283 8.34186 158.275 5.61658 124.113C5.57301 123.438 5.66587 122.76 5.88953 122.122C6.11318 121.484 6.46294 120.898 6.9175 120.401C7.37205 119.904 7.9219 119.506 8.53355 119.23C9.14519 118.955 9.80583 118.809 10.4752 118.8V118.825Z" fill="#DD0E0E"/>
<path d="M118.204 71.6789H8.66251C8.29765 71.6774 7.93873 71.5855 7.61716 71.4111C7.29558 71.2368 7.02116 70.9854 6.81793 70.6789C6.6147 70.3724 6.48885 70.0202 6.4514 69.6531C6.41396 69.2861 6.46605 68.9153 6.60313 68.5733C11.2624 57.2087 19.1479 47.4962 29.2632 40.663C39.3785 33.8299 51.2695 30.1829 63.4334 30.1829C75.5974 30.1829 87.4884 33.8299 97.6036 40.663C107.719 47.4962 115.604 57.2087 120.264 68.5733C120.401 68.9153 120.453 69.2861 120.415 69.6531C120.378 70.0202 120.252 70.3724 120.049 70.6789C119.846 70.9854 119.571 71.2368 119.25 71.4111C118.928 71.5855 118.569 71.6774 118.204 71.6789V71.6789Z" fill="#DD0E0E"/>
<path d="M24.8362 55.0982C24.4488 55.0937 24.0784 54.9363 23.804 54.6597C23.6592 54.515 23.5442 54.3427 23.4658 54.1528C23.3873 53.9628 23.3469 53.759 23.3469 53.5531C23.3469 53.3473 23.3873 53.1434 23.4658 52.9535C23.5442 52.7635 23.6592 52.5912 23.804 52.4465C31.6038 44.228 41.8072 38.7606 52.911 36.8499C53.3217 36.7793 53.7432 36.8766 54.0829 37.1203C54.4226 37.3641 54.6527 37.7343 54.7225 38.1496C54.7923 38.5649 54.6961 38.9913 54.4551 39.3349C54.2141 39.6785 53.8481 39.9111 53.4375 39.9818C42.9575 41.7506 33.3195 46.8864 25.9509 54.6284C25.805 54.7773 25.6313 54.8955 25.44 54.9761C25.2487 55.0567 25.0434 55.0982 24.8362 55.0982V55.0982Z" fill="#D7D7D7"/>
<path d="M22.1526 59.3366C22.1526 59.6839 22.0506 60.0234 21.8596 60.3121C21.6686 60.6007 21.3972 60.8255 21.0797 60.9579C20.7623 61.0904 20.4131 61.1245 20.0764 61.0559C19.7398 60.9874 19.4308 60.8193 19.1888 60.573C18.9467 60.3267 18.7823 60.0132 18.7166 59.6723C18.6508 59.3314 18.6867 58.9785 18.8195 58.6582C18.9523 58.3379 19.1762 58.0647 19.4627 57.8733C19.7492 57.6818 20.0855 57.5807 20.4289 57.5828C20.6561 57.5828 20.8811 57.6282 21.0909 57.7165C21.3007 57.8047 21.4912 57.9341 21.6514 58.0971C21.8116 58.2601 21.9383 58.4535 22.0244 58.6662C22.1104 58.879 22.154 59.1068 22.1526 59.3366Z" fill="#D7D7D7"/>
<path d="M10.4752 121.319C10.1412 121.324 9.81156 121.397 9.50631 121.534C9.20107 121.671 8.92656 121.87 8.69944 122.118C8.47551 122.36 8.30396 122.648 8.19569 122.961C8.08742 123.275 8.0448 123.607 8.07053 123.938C10.5369 155.207 36.7909 157.826 63.4272 157.826C89.4469 157.826 116.367 157.826 118.784 123.938C118.8 123.606 118.751 123.273 118.638 122.96C118.526 122.647 118.352 122.36 118.128 122.116C117.904 121.872 117.634 121.675 117.333 121.539C117.033 121.402 116.708 121.327 116.379 121.319H10.4752ZM63.4272 162.815C42.0318 162.815 6.23311 162.815 3.16254 124.338C3.08058 123.319 3.20811 122.295 3.53708 121.329C3.86605 120.363 4.38934 119.476 5.07394 118.725C5.76382 117.973 6.5993 117.372 7.52848 116.96C8.45765 116.548 9.46066 116.334 10.4752 116.33H116.379C117.386 116.338 118.381 116.554 119.303 116.965C120.225 117.376 121.054 117.972 121.74 118.718C122.426 119.465 122.954 120.345 123.292 121.304C123.629 122.264 123.77 123.284 123.704 124.3C120.954 162.815 89.0523 162.815 63.4272 162.815Z" fill="#D7D7D7"/>
<path d="M9.02002 69.1845H117.847C113.332 58.3603 105.762 49.1229 96.084 42.6279C86.4056 36.1329 75.0484 32.6686 63.4333 32.6686C51.8182 32.6686 40.461 36.1329 30.7826 42.6279C21.1042 49.1229 13.5343 58.3603 9.02002 69.1845V69.1845ZM118.204 74.1735H8.6624C7.89147 74.175 7.13208 73.9841 6.45153 73.6178C5.77098 73.2515 5.19031 72.721 4.76099 72.0733C4.33166 71.4257 4.06695 70.6809 3.99032 69.905C3.91369 69.1292 4.0275 68.3462 4.32168 67.6254C9.16677 55.8034 17.3684 45.6995 27.8899 38.5909C38.4114 31.4824 50.7803 27.6884 63.4333 27.6884C76.0863 27.6884 88.4552 31.4824 98.9767 38.5909C109.498 45.6995 117.7 55.8034 122.545 67.6254C122.835 68.3471 122.946 69.1297 122.868 69.9048C122.79 70.6799 122.525 71.4238 122.097 72.0713C121.668 72.7188 121.089 73.2502 120.411 73.6188C119.732 73.9875 118.975 74.1822 118.204 74.1859V74.1735Z" fill="#D7D7D7"/>
<path d="M49.0855 48.3929C48.5988 48.8002 47.9811 49.0125 47.3498 48.9895C46.7184 48.9665 46.1175 48.7098 45.661 48.2681C45.2045 47.8264 44.9243 47.2305 44.8736 46.5936C44.8229 45.9567 45.0053 45.3232 45.386 44.8134C46.3602 43.7657 50.701 40.8222 51.7368 41.82C52.7727 42.8178 50.109 47.3453 49.1225 48.3929H49.0855Z" fill="#D7D7D7"/>
<path d="M23.5221 63.8713C23.2443 64.067 22.9312 64.2055 22.6006 64.2788C22.2699 64.3522 21.9282 64.3589 21.595 64.2987C21.2618 64.2385 20.9435 64.1124 20.6585 63.9278C20.3734 63.7432 20.1271 63.5036 19.9336 63.2227C19.74 62.9418 19.6031 62.6251 19.5306 62.2907C19.4581 61.9563 19.4514 61.6107 19.511 61.2736C19.5705 60.9366 19.6951 60.6147 19.8776 60.3264C20.0602 60.0381 20.2971 59.789 20.5748 59.5932C21.808 58.77 26.5803 56.7869 27.3942 57.9718C28.2081 59.1567 24.6936 63.0481 23.5221 63.8713Z" fill="#D7D7D7"/>
<path d="M60.7512 60.8404C60.6629 61.5268 60.3086 62.1496 59.7663 62.5718C59.224 62.994 58.5381 63.181 57.8594 63.0917C57.1808 63.0024 56.565 62.644 56.1476 62.0955C55.7302 61.547 55.5452 60.8533 55.6335 60.1669C55.8185 58.7326 57.6313 53.781 59.0371 53.9307C60.4429 54.0803 60.9362 59.3811 60.7512 60.803V60.8404Z" fill="#D7D7D7"/>
<path d="M81.678 43.4663C82.0536 43.9826 82.228 44.6207 82.1679 45.2588C82.1077 45.8969 81.8172 46.4902 81.3519 46.9254C80.8865 47.3605 80.279 47.607 79.6453 47.6178C79.0117 47.6285 78.3963 47.4027 77.9168 46.9835C76.9426 45.9359 74.2913 41.3959 75.3272 40.3981C76.363 39.4003 80.6915 42.3687 81.678 43.4164V43.4663Z" fill="#D7D7D7"/>
<path d="M89.2003 61.3768C89.4513 61.6069 89.6551 61.8848 89.7999 62.1945C89.9447 62.5043 90.0278 62.8399 90.0444 63.1821C90.061 63.5243 90.0108 63.8665 89.8967 64.1892C89.7825 64.5118 89.6066 64.8085 89.3791 65.0624C89.1516 65.3162 88.8768 65.5223 88.5706 65.6688C88.2643 65.8153 87.9325 65.8993 87.5942 65.9161C87.2558 65.9329 86.9174 65.8821 86.5985 65.7667C86.2795 65.6512 85.9861 65.4733 85.7351 65.2432C84.6869 64.2828 81.678 59.9549 82.6276 58.8947C83.5771 57.8346 88.1398 60.4039 89.2003 61.3892V61.3768Z" fill="#D7D7D7"/>
<path d="M102.518 51.3863C102.899 51.9448 103.05 52.6313 102.938 53.3001C102.826 53.969 102.461 54.5674 101.92 54.9684C101.379 55.3694 100.705 55.5413 100.041 55.4477C99.3766 55.3541 98.7746 55.0023 98.3627 54.467C97.5118 53.3071 95.4401 48.4678 96.587 47.6197C97.7338 46.7715 101.68 50.2264 102.518 51.3614V51.3863Z" fill="#D7D7D7"/>
<path d="M104.676 114.721C98.5107 114.721 95.4154 111.703 92.6531 109.046C90.1868 106.639 88.2138 104.743 84.021 104.743C79.8283 104.743 77.8552 106.639 75.3889 109.046C72.6389 111.703 69.519 114.721 63.3779 114.721C57.2367 114.721 54.1045 111.703 51.3545 109.046C48.8882 106.639 46.9152 104.743 42.7224 104.743C38.5297 104.743 36.5566 106.639 34.0903 109.046C31.3403 111.703 28.2204 114.721 22.0793 114.721C15.9381 114.721 12.8182 111.703 10.0683 109.046C7.8979 106.939 6.01117 105.13 2.6693 104.806C2.01519 104.743 1.41255 104.42 0.993964 103.908C0.575378 103.395 0.375126 102.736 0.437267 102.074C0.499407 101.413 0.818849 100.803 1.32531 100.38C1.83178 99.9565 2.48379 99.754 3.13789 99.8168C8.23086 100.316 11.0425 103.022 13.5211 105.429C15.9998 107.837 17.9605 109.72 22.1533 109.72C26.346 109.72 28.3191 107.824 30.7854 105.429C33.5353 102.76 36.6553 99.742 42.7964 99.742C48.9375 99.742 52.0574 102.76 54.8197 105.429C57.2861 107.824 59.2591 109.72 63.4519 109.72C67.6446 109.72 69.6177 107.824 72.084 105.429C74.834 102.76 77.9538 99.742 84.095 99.742C90.2361 99.742 93.3684 102.76 96.1183 105.429C98.5846 107.824 100.558 109.72 104.75 109.72C108.943 109.72 110.916 107.824 113.383 105.429C115.849 103.035 118.673 100.316 123.778 99.8168C124.432 99.754 125.084 99.9565 125.591 100.38C126.097 100.803 126.417 101.413 126.479 102.074C126.541 102.736 126.341 103.395 125.922 103.908C125.503 104.42 124.901 104.743 124.247 104.806C120.843 105.13 118.969 106.939 116.848 109.046C114.086 111.703 110.966 114.721 104.824 114.721H104.676Z" fill="#D7D7D7"/>
<path d="M64.5863 35.4964H64.3643C63.7137 35.4363 63.1133 35.1175 62.6948 34.6101C62.2764 34.1026 62.0741 33.448 62.1323 32.7899L64.8576 2.56914C64.9165 1.90756 65.2328 1.29673 65.7369 0.871023C66.2411 0.445318 66.8918 0.23961 67.5459 0.299152C68.2 0.358694 68.8039 0.678609 69.2248 1.18852C69.6457 1.69843 69.8491 2.35657 69.7902 3.01815L67.0403 33.2638C66.9847 33.8858 66.7005 34.464 66.2439 34.8843C65.7873 35.3046 65.1914 35.5363 64.5739 35.5338L64.5863 35.4964Z" fill="#D7D7D7"/>
<path d="M68.5202 20.1055C71.8251 21.3527 75.4506 20.779 79.261 20.1055C83.0715 19.4319 87.0793 18.7709 91.1611 19.9184L92.0119 7.85752C88.7071 6.61027 85.0816 7.184 81.2834 7.85752C77.4853 8.53103 73.4528 9.1796 69.3711 8.03213L68.5202 20.093V20.1055ZM93.3314 26.0798C92.8978 26.0826 92.4715 25.9662 92.0983 25.743C88.3988 23.6227 84.3417 24.3211 80.0133 25.057C75.2409 25.8677 69.8397 26.7907 64.6604 23.8098C64.2593 23.577 63.9311 23.2349 63.713 22.8225C63.495 22.4101 63.3959 21.944 63.4272 21.4774L64.6604 4.27793C64.6901 3.85798 64.8244 3.45248 65.0508 3.09918C65.2772 2.74589 65.5883 2.4563 65.9552 2.25739C66.3212 2.05209 66.7329 1.94437 67.1514 1.94437C67.5699 1.94437 67.9815 2.05209 68.3475 2.25739C72.047 4.3777 76.0918 3.67925 80.4202 2.94337C85.1925 2.13267 90.5938 1.22218 95.7731 4.19062C96.1761 4.42432 96.5057 4.7684 96.7239 5.18324C96.942 5.59808 97.0399 6.0668 97.0062 6.53544L95.7731 23.7225C95.7584 24.1405 95.64 24.548 95.4288 24.9076C95.2177 25.2672 94.9205 25.5674 94.5646 25.7804C94.2083 25.9749 93.8102 26.0777 93.4054 26.0798H93.3314Z" fill="#D7D7D7"/>
<path d="M120.461 82.3304H5.60417C4.95006 82.3304 4.32274 82.0676 3.86022 81.5998C3.39769 81.132 3.13785 80.4975 3.13785 79.8359C3.13785 79.1743 3.39769 78.5399 3.86022 78.0721C4.32274 77.6043 4.95006 77.3414 5.60417 77.3414H120.461C121.115 77.3414 121.742 77.6043 122.205 78.0721C122.667 78.5399 122.927 79.1743 122.927 79.8359C122.927 80.4975 122.667 81.132 122.205 81.5998C121.742 82.0676 121.115 82.3304 120.461 82.3304Z" fill="#D7D7D7"/>
<path d="M120.461 97.6092H5.60417C4.95006 97.6092 4.32274 97.3464 3.86022 96.8786C3.39769 96.4108 3.13785 95.7763 3.13785 95.1147C3.13785 94.4531 3.39769 93.8186 3.86022 93.3508C4.32274 92.883 4.95006 92.6202 5.60417 92.6202H120.461C121.115 92.6202 121.742 92.883 122.205 93.3508C122.667 93.8186 122.927 94.4531 122.927 95.1147C122.927 95.7763 122.667 96.4108 122.205 96.8786C121.742 97.3464 121.115 97.6092 120.461 97.6092Z" fill="#D7D7D7"/>
<path d="M15.4326 89.764H8.60087C8.12337 89.764 7.66543 89.5722 7.32778 89.2307C6.99014 88.8892 6.80046 88.426 6.80046 87.943C6.80046 87.4601 6.99014 86.9969 7.32778 86.6554C7.66543 86.3139 8.12337 86.1221 8.60087 86.1221H15.4326C15.9101 86.1221 16.368 86.3139 16.7057 86.6554C17.0433 86.9969 17.233 87.4601 17.233 87.943C17.233 88.426 17.0433 88.8892 16.7057 89.2307C16.368 89.5722 15.9101 89.764 15.4326 89.764V89.764Z" fill="#D7D7D7"/>
<path d="M35.4715 89.764H28.6398C28.1623 89.764 27.7043 89.5722 27.3667 89.2307C27.029 88.8892 26.8393 88.426 26.8393 87.943C26.8393 87.4601 27.029 86.9969 27.3667 86.6554C27.7043 86.3139 28.1623 86.1221 28.6398 86.1221H35.4715C35.949 86.1221 36.4069 86.3139 36.7446 86.6554C37.0822 86.9969 37.2719 87.4601 37.2719 87.943C37.2719 88.426 37.0822 88.8892 36.7446 89.2307C36.4069 89.5722 35.949 89.764 35.4715 89.764Z" fill="#D7D7D7"/>
<path d="M55.5104 89.764H48.6786C48.2011 89.764 47.7432 89.5722 47.4056 89.2307C47.0679 88.8892 46.8782 88.426 46.8782 87.943C46.8782 87.4601 47.0679 86.9969 47.4056 86.6554C47.7432 86.3139 48.2011 86.1221 48.6786 86.1221H55.5104C55.9879 86.1221 56.4458 86.3139 56.7835 86.6554C57.1211 86.9969 57.3108 87.4601 57.3108 87.943C57.3108 88.426 57.1211 88.8892 56.7835 89.2307C56.4458 89.5722 55.9879 89.764 55.5104 89.764Z" fill="#D7D7D7"/>
<path d="M75.5492 89.764H68.6682C68.1907 89.764 67.7327 89.5722 67.3951 89.2307C67.0574 88.8892 66.8677 88.426 66.8677 87.943C66.8677 87.4601 67.0574 86.9969 67.3951 86.6554C67.7327 86.3139 68.1907 86.1221 68.6682 86.1221H75.4999C75.9774 86.1221 76.4353 86.3139 76.773 86.6554C77.1106 86.9969 77.3003 87.4601 77.3003 87.943C77.3003 88.426 77.1106 88.8892 76.773 89.2307C76.4353 89.5722 75.9774 89.764 75.4999 89.764H75.5492Z" fill="#D7D7D7"/>
<path d="M95.5881 89.764H88.7564C88.2789 89.764 87.821 89.5722 87.4833 89.2307C87.1457 88.8892 86.956 88.426 86.956 87.943C86.956 87.4601 87.1457 86.9969 87.4833 86.6554C87.821 86.3139 88.2789 86.1221 88.7564 86.1221H95.5881C96.0656 86.1221 96.5235 86.3139 96.8612 86.6554C97.1988 86.9969 97.3885 87.4601 97.3885 87.943C97.3885 88.426 97.1988 88.8892 96.8612 89.2307C96.5235 89.5722 96.0656 89.764 95.5881 89.764V89.764Z" fill="#D7D7D7"/>
<path d="M115.627 89.764H108.795C108.318 89.764 107.86 89.5722 107.522 89.2307C107.185 88.8892 106.995 88.426 106.995 87.943C106.995 87.4601 107.185 86.9969 107.522 86.6554C107.86 86.3139 108.318 86.1221 108.795 86.1221H115.627C116.104 86.1221 116.562 86.3139 116.9 86.6554C117.238 86.9969 117.427 87.4601 117.427 87.943C117.427 88.426 117.238 88.8892 116.9 89.2307C116.562 89.5722 116.104 89.764 115.627 89.764V89.764Z" fill="#D7D7D7"/>
<path d="M220.718 64.5183H177.9C169.733 64.5183 163.113 71.2141 163.113 79.4738V122.781C163.113 131.04 169.733 137.736 177.9 137.736H220.718C228.884 137.736 235.504 131.04 235.504 122.781V79.4738C235.504 71.2141 228.884 64.5183 220.718 64.5183Z" fill="#DD0E0E"/>
<path d="M282.774 110.064C282.696 113.299 281.802 116.46 280.175 119.246C278.203 122.843 275.094 125.665 271.345 127.259C267.637 128.713 263.706 129.501 259.73 129.586L247.63 129.711L260.576 129.825C268.361 129.825 274.633 127.196 279.392 121.938C275.08 127.489 268.323 130.261 259.121 130.252C249.918 130.244 245.159 130.206 244.844 130.139C244.16 129.485 243.476 128.806 242.792 128.114C242.081 127.53 241.607 126.701 241.461 125.787C241.3 122.932 241.275 119.146 241.399 114.467C241.515 107.607 241.573 103.796 241.573 103.033C241.573 101.398 241.573 98.945 241.362 95.6872C241.15 92.4295 241.15 89.9767 241.15 88.3416C241.15 86.1781 241.15 83.9518 241.275 81.6751L241.76 81.738C242.481 83.4151 242.896 88.7357 243.003 97.6998C243.186 97.366 243.268 96.9857 243.24 96.6055C243.24 96.4042 243.082 88.7734 242.767 73.7131C242.997 74.1989 243.156 74.7158 243.24 75.2477C243.24 76.8828 243.343 79.3523 243.551 82.6562C244.11 85.852 244.492 89.0772 244.695 92.3163C244.695 92.8446 244.695 93.5741 244.583 94.6433C244.471 95.7124 244.458 96.4419 244.458 96.9702C245.018 96.6055 245.304 96.291 245.304 96.052L245.242 88.5806C245.898 90.6783 246.204 92.8716 246.15 95.0709L245.938 102.417L246.784 123.032V115.259C246.784 114.567 246.709 113.536 246.56 112.14C246.411 110.743 246.349 109.712 246.349 109.02V106.945L246.834 107.247V106.819C246.834 106.089 246.834 105.071 246.747 103.788C246.66 102.505 246.66 101.536 246.66 100.882C246.656 99.8815 246.714 98.8817 246.834 97.8884L247.145 97.6369C248.001 100.789 248.448 104.041 248.475 107.31C248.475 110.53 248.475 113.754 248.475 116.982C248.475 117.674 248.475 118.68 248.351 120.014C248.227 121.347 248.227 122.328 248.227 122.969L260.153 123.586C264.402 123.991 268.658 122.888 272.191 120.466C273.925 119.247 275.323 117.602 276.255 115.685C277.186 113.769 277.619 111.644 277.514 109.511C277.62 107.132 276.937 104.785 275.574 102.844C274.135 101.008 272.291 99.5389 270.189 98.5551C270.189 98.3538 270.189 97.8884 270.065 97.1463C269.997 96.6797 269.96 96.2091 269.953 95.7376V95.3099L273.82 91.5364C274.87 89.949 275.38 88.0596 275.275 86.153C275.314 84.1677 274.857 82.2047 273.946 80.4457C273.035 78.6867 271.7 77.1887 270.065 76.0904C266.856 73.7787 262.997 72.5745 259.059 72.6565C257.558 72.5493 256.064 72.3646 254.581 72.1031H256.335C259.931 72.0332 263.512 72.595 266.918 73.7634C269.411 74.6797 271.553 76.3705 273.037 78.5935C274.604 80.7906 275.448 83.431 275.449 86.1404C275.421 88.5274 274.731 90.8586 273.46 92.8697V92.9829C275.06 91.9264 275.864 89.6455 275.872 86.1404C275.931 83.0723 274.878 80.0885 272.912 77.7507C270.905 75.437 268.279 73.7596 265.351 72.9207C262.522 72.332 259.646 72.0036 256.758 71.9396C252.405 71.6461 250.005 71.361 249.557 71.0843L250.279 71.0214L244.657 70.5937C245.105 70.1032 247.082 69.8516 250.589 69.8516C252.044 69.8516 253.835 69.8516 255.974 70.0403L259.544 70.1661L248.351 69.6755L248.164 69.424C248.602 69.2145 249.074 69.0907 249.557 69.0592H258.748C263.933 68.8276 269.048 70.3355 273.298 73.3483C275.342 74.8432 276.986 76.8278 278.085 79.1241C279.183 81.4204 279.701 83.9567 279.591 86.5051C279.577 89.1298 278.955 91.7147 277.775 94.0521C277.644 93.9839 277.5 93.9452 277.352 93.9389C276.991 93.9389 276.594 94.2156 276.109 94.7942C275.624 95.3728 275.226 95.9262 275.138 96.052C277.349 97.7151 279.287 99.7184 280.884 101.989C282.222 104.459 282.875 107.249 282.774 110.064V110.064ZM244.421 80.3167C244.351 80.7426 244.251 81.1629 244.123 81.5745L243.389 71.9018C244.158 74.6365 244.507 77.4748 244.421 80.3167ZM245.03 89.0082C244.906 88.568 244.72 87.8888 244.483 86.9957L244.72 86.3794C244.919 87.2347 245.03 87.6372 245.03 87.7252V89.0082ZM246.784 125.485V125.359C246.806 125.205 246.782 125.047 246.716 124.906C246.649 124.765 246.543 124.647 246.411 124.567V125.485H246.784ZM247.567 125.485L247.082 125.296L246.896 125.485H247.567ZM263.909 125.233H263.473C262.953 125.287 262.429 125.308 261.906 125.296C261.384 125.296 257.715 125.074 250.9 124.63C250.614 124.63 250.204 124.63 249.657 124.63L248.575 124.693L248.426 124.68V125.347L258.375 125.661L263.909 125.233ZM271.768 108.781C271.768 112.781 270.156 115.372 266.931 116.555C266.079 116.903 265.183 117.127 264.269 117.221L262.105 117.133C265.401 116.806 267.689 116.202 268.933 115.297C270.55 114.114 271.42 112.001 271.42 108.932C271.419 108.414 271.335 107.9 271.171 107.41C270.898 110.664 270.355 112.886 269.542 114.077C268.46 115.787 266.371 116.592 263.324 116.592C261.869 116.592 260.986 116.391 260.663 115.988C260.171 115.898 259.685 115.777 259.208 115.624L257.579 116.353L257.703 116.97C257.358 116.644 256.925 116.429 256.459 116.353V115.988L256.099 115.624L255.427 116.051L255.676 117.032L255.377 116.718L255.253 116.907L254.892 116.479V115.988L255.253 116.051V115.875C255.248 115.586 255.207 115.298 255.129 115.02L254.892 115.083V114.404C254.96 114.404 255.028 114.39 255.09 114.362C255.153 114.334 255.208 114.294 255.254 114.243C255.3 114.192 255.335 114.131 255.356 114.066C255.377 114.001 255.384 113.931 255.377 113.863C255.367 113.767 255.323 113.677 255.253 113.611C254.731 113.611 254.47 113.863 254.47 114.341C254.482 114.6 254.52 114.857 254.581 115.108C254.641 115.318 254.683 115.532 254.706 115.749C254.735 115.891 254.735 116.036 254.706 116.177C254.293 115.877 254.012 115.426 253.922 114.919C253.833 114.375 253.812 113.821 253.86 113.272C253.947 112.29 253.985 111.775 253.985 111.737C253.945 110.822 253.824 109.913 253.624 109.02C253.419 108.145 253.294 107.252 253.251 106.354C253.251 103.209 254.242 101.637 256.223 101.637H258.039H259.854C259.494 101.637 258.797 101.473 257.79 101.259C257.135 101.12 256.469 101.04 255.8 101.02C255.201 101.051 254.636 101.312 254.221 101.75C253.86 102.203 253.475 102.656 253.077 103.096V106.593C253.122 107.221 253.222 107.844 253.375 108.454C253.553 109.1 253.616 109.773 253.562 110.441H253.015C253.036 111.101 253.115 111.758 253.251 112.404C253.203 112.773 253.08 113.128 252.89 113.448C251.883 113.158 251.385 111.36 251.385 108.052C251.4 107.631 251.437 107.211 251.497 106.794C251.566 106.378 251.607 105.958 251.622 105.536C251.594 105.152 251.523 104.772 251.41 104.404C251.301 104.057 251.23 103.698 251.199 103.335C251.199 102.391 252.442 101.033 255.066 99.2343C255.315 99.3266 257.657 99.6955 262.093 100.341C264.459 100.591 266.747 101.341 268.808 102.542C269.782 103.245 270.564 104.186 271.082 105.277C271.599 106.368 271.836 107.573 271.768 108.781V108.781ZM268.746 86.3165C268.746 91.2597 266.259 93.7251 261.421 93.7251C260.699 93.6962 259.985 93.5519 259.307 93.2974C261.28 93.388 263.255 93.2017 265.177 92.744C266.126 92.4808 266.945 91.8738 267.48 91.0387C268.014 90.2036 268.226 89.1987 268.075 88.2158V87.1215C267.883 88.8157 267.19 90.4117 266.085 91.7C264.776 92.7243 263.131 93.2056 261.484 93.0458C260.938 93.0299 260.394 92.9795 259.854 92.8949L258.213 92.6811C257.869 92.2871 257.445 91.9738 256.969 91.7629C256.729 91.8954 256.507 92.0604 256.31 92.2534C256.478 92.5239 256.62 92.8103 256.733 93.1087C256.646 92.9955 256.472 92.6811 256.186 92.1905L255.514 92.505C255.76 92.6654 255.951 92.8981 256.061 93.1716L255.763 92.8697V93.1716L255.042 92.505V92.1276L255.887 91.8257C255.763 91.6245 255.601 91.3352 255.402 90.9704V91.5868L255.042 91.2094V90.8446H255.527C255.399 90.6706 255.333 90.4577 255.34 90.2409C255.389 89.8454 255.468 89.4543 255.576 89.0711L254.793 89.134C254.713 89.2622 254.67 89.4102 254.669 89.5617C254.685 89.8003 254.727 90.0364 254.793 90.266C254.861 90.4737 254.903 90.6892 254.917 90.9075H254.644C254.121 90.9075 253.835 90.505 253.798 89.5617C253.885 91.0711 253.922 90.4421 253.922 87.6624C253.88 86.9094 253.759 86.1631 253.562 85.436C253.36 84.7264 253.235 83.9968 253.189 83.26C253.254 82.627 253.486 82.0232 253.86 81.5116C254.308 80.8072 254.706 80.4425 255.104 80.4425C255.583 80.4582 256.061 80.5086 256.534 80.5934C257.001 80.6877 257.475 80.7424 257.952 80.7569C258.705 80.7611 259.456 80.6767 260.19 80.5054C257.442 80.1029 255.987 79.889 255.838 79.889C255.155 79.9627 254.52 80.2792 254.047 80.7821C253.774 80.9775 253.545 81.2283 253.373 81.5186C253.202 81.8088 253.092 82.132 253.052 82.4676C252.983 83.7118 253.147 84.9581 253.537 86.1404V86.4423L252.99 86.5051C252.999 86.7836 253.028 87.0611 253.077 87.3353C253.128 87.6261 253.157 87.9204 253.164 88.2158V88.7063L252.791 88.8321C251.87 88.09 251.41 86.7316 251.41 84.7316C251.41 82.7317 252.654 80.7066 255.216 78.3042L256.31 78.0023C257.386 78.3856 258.499 78.6513 259.631 78.7947C261.409 79.0337 262.541 79.2224 263.026 79.3482C264.63 79.7068 266.073 80.5911 267.13 81.8638C268.196 83.0937 268.772 84.6808 268.746 86.3165V86.3165ZM256.646 114.781V113.36H256.273V113.599C256.273 113.8 256.111 114.014 255.8 114.215C255.489 114.416 255.315 114.617 255.315 114.831C255.749 114.71 256.204 114.693 256.646 114.781V114.781ZM257.131 115.146V114.831L255.676 115.02L255.912 115.448C256.327 115.385 256.735 115.284 257.131 115.146V115.146ZM257.305 91.0962C257.087 90.355 256.925 89.5981 256.82 88.8321L256.646 89.6246C256.752 89.7662 256.813 89.9374 256.82 90.1151C256.82 90.5176 256.559 90.7063 256.037 90.6686L256.584 90.9075C256.372 91.1661 256.148 91.4138 255.912 91.6497L256.223 91.7629C256.62 91.6077 256.987 91.3819 257.305 91.0962V91.0962ZM267.254 109.699C267.296 109.257 267.236 108.811 267.078 108.396C266.921 107.982 266.67 107.61 266.346 107.31C265.625 106.819 264.916 106.328 264.232 105.838C262.787 105.672 261.334 105.592 259.879 105.599C259.713 105.604 259.547 105.568 259.398 105.493C259.248 105.419 259.119 105.308 259.021 105.171C258.799 104.903 258.599 104.617 258.424 104.316V105.901C260.023 105.893 261.62 106.015 263.2 106.266L263.324 106.517L258.35 106.203V113.36H257.106C257.144 113.807 257.144 114.258 257.106 114.706H257.703C257.905 114.674 258.108 114.653 258.312 114.643C258.362 114.634 258.412 114.637 258.46 114.652C258.508 114.667 258.551 114.694 258.587 114.73C258.622 114.766 258.648 114.81 258.664 114.858C258.679 114.906 258.682 114.958 258.673 115.007C258.474 115.334 258.026 115.46 257.342 115.372V115.8H257.653C258.363 115.807 259.05 115.547 259.581 115.07C260.999 115.07 262.342 115.07 263.635 114.882H263.088C262.16 114.925 261.23 114.866 260.315 114.706L260.128 114.391C261.032 113.994 261.994 113.747 262.976 113.662C264.008 113.575 265.014 113.284 265.936 112.806C266.404 112.45 266.77 111.975 266.998 111.43C267.225 110.884 267.305 110.287 267.229 109.699H267.254ZM257.554 103.297C257.426 103.466 257.321 103.653 257.243 103.851L257.429 103.788L257.554 103.297ZM264.021 87.2598C263.758 86.372 263.337 85.5405 262.777 84.8071C262.245 84.7134 261.717 84.5917 261.198 84.4423H258.238V84.87C259.538 84.7961 260.843 84.9234 262.105 85.2473L262.292 85.4234L261.931 85.4863C261.414 85.2616 260.852 85.1584 260.29 85.1845C259.97 85.1874 259.65 85.2084 259.332 85.2473H258.375V87.6875C258.375 87.3605 258.499 88.1529 258.735 90.0774H261.036C261.945 89.8138 262.834 89.486 263.697 89.0963C263.918 88.5233 264.028 87.9126 264.021 87.2976V87.2598ZM263.598 102.492H260.327C260.737 102.492 261.571 102.568 263.001 102.731L263.598 102.492ZM263.349 81.9141C262.779 81.6263 262.165 81.4391 261.533 81.3607H260.501C260.974 81.3815 261.443 81.4661 261.894 81.6122C262.582 81.738 263.067 81.8386 263.349 81.9141ZM264.593 84.7945C264.518 84.4675 264.108 84.1027 263.349 83.6876H262.802C263.388 84.0035 263.957 84.3521 264.506 84.7316L264.593 84.7945ZM266.346 105.599C265.843 105.127 265.245 104.77 264.593 104.555H263.349C264.008 104.756 264.966 105.083 266.259 105.536L266.346 105.599ZM266.955 87.4234V86.9454C266.936 86.4605 266.887 85.9773 266.806 85.4989C266.703 85.1115 266.525 84.7483 266.284 84.4298C266.647 85.3644 266.845 86.3564 266.868 87.3605L266.955 87.4234ZM274.703 100.517C272.564 99.0079 271.234 98.2532 270.711 98.2532H270.587L274.703 100.517ZM272.465 97.6369L271.731 97.3979V97.7627L272.154 97.8884L272.465 97.6369ZM279.23 105.473C278.849 103.827 278.1 102.292 277.042 100.984C275.983 99.6757 274.643 98.6298 273.124 97.9262L272.577 98.2909C274.15 98.9659 275.566 99.9688 276.73 101.234C277.863 102.404 278.692 103.838 279.143 105.41L279.23 105.473ZM276.034 94.2785H272.999C273.646 94.769 274.243 95.2344 274.94 95.6872C275.336 95.2419 275.674 94.7473 275.947 94.2156L276.034 94.2785ZM281.593 110.316C280.834 115.284 279.392 119.058 277.302 121.636C278.769 120.172 279.851 118.36 280.449 116.366C281.145 114.405 281.503 112.337 281.506 110.253L281.593 110.316ZM279.902 111.347V108.328C279.778 110.931 279.395 113.514 278.757 116.039C279.237 114.486 279.59 112.895 279.815 111.284L279.902 111.347Z" fill="#D7D7D7"/>
<path d="M318.541 127.686L316.414 129.824H308.617L307.286 128.453C305.545 130.089 302.971 130.906 299.538 130.906C294.381 130.906 290.327 129.275 287.376 126.013C284.557 122.869 283.147 118.705 283.147 113.523V102.882C283.147 98.3957 283.147 94.8654 283.147 92.2911L283.334 91.7376C282.886 92.0647 282.646 94.4923 282.613 99.0204V92.1024L284.267 90.4547C284.707 89.955 285.323 89.6483 285.983 89.5994C286.542 89.5994 287.45 89.5993 288.694 89.5113C289.938 89.4233 290.883 89.4107 291.517 89.4107C292.407 89.3493 293.289 89.6126 294.004 90.1528L295.932 92.1024C295.932 93.2974 295.932 94.8445 295.932 96.7564V111.221C295.932 115.708 297.486 117.955 300.595 117.963C303.692 117.963 305.234 115.913 305.184 111.838L305.01 96.052C304.94 95.3195 305.065 94.5813 305.371 93.9137C305.705 94.9421 305.889 96.014 305.918 97.096C305.993 98.228 306.08 99.3726 306.154 100.517C306.241 99.989 306.341 98.6179 306.465 96.4167C306.577 93.964 306.614 92.6433 306.577 92.3163C306.9 91.8634 307.385 91.2597 308.032 90.4798H314.623C314.082 90.7003 313.513 90.8442 312.932 90.9075C312.484 90.9075 311.9 90.9075 311.179 90.9075H309.425C308.293 90.9075 307.572 91.2094 307.249 91.8257V92.0144L307.783 91.398C312.509 91.071 315.336 90.9494 316.265 91.0333C314.765 91.2867 313.246 91.4088 311.726 91.398C310.443 91.365 309.162 91.4875 307.908 91.7628L307.423 92.2534C307.423 92.6684 307.323 93.2722 307.249 94.0898C307.249 93.7627 307.124 93.2596 307 92.5678C306.807 92.904 306.685 93.2763 306.639 93.6621C306.696 95.2739 306.867 96.8796 307.149 98.467C307.44 100.053 307.615 101.659 307.672 103.272C307.672 103.964 307.672 105.146 307.609 106.819C307.547 108.492 307.51 109.511 307.609 110.366V110.844L308.219 110.114V101.674L308.816 109.561C308.816 117.561 305.951 121.561 300.222 121.561C299.008 121.622 297.799 121.368 296.711 120.822C295.622 120.275 294.69 119.456 294.004 118.441C292.686 116.322 292.071 113.832 292.251 111.335L292.611 94.6935H291.169C290.951 95.3628 290.846 96.0644 290.858 96.7689C290.917 98.6312 291.121 100.486 291.467 102.316C291.807 104.143 292.011 105.993 292.077 107.85C291.93 110.946 292.275 114.046 293.096 117.032C293.55 118.491 294.48 119.751 295.734 120.605C296.988 121.46 298.491 121.859 299.998 121.737C300.688 121.693 301.374 121.6 302.05 121.46C303.107 121.284 303.692 121.183 303.804 121.183L303.692 121.498H303.804C304.339 121.498 305.048 121.007 306.105 120.026C306.858 119.397 307.458 118.601 307.858 117.699C308.264 116.475 308.812 114.475 309.5 111.699C309.675 112.212 309.755 112.754 309.736 113.297C309.878 115.941 308.985 118.535 307.249 120.517C306.331 121.437 305.233 122.152 304.024 122.616C302.816 123.08 301.525 123.281 300.235 123.208C296.069 123.208 293.333 121.347 292.002 117.636C291.264 115.565 290.899 111.955 290.908 106.806C290.908 106.026 290.908 104.832 290.908 103.196C290.908 101.561 290.908 100.341 290.908 99.5236C290.856 98.6637 290.68 97.8161 290.385 97.0079C290.149 96.156 289.793 95.3428 289.328 94.5929C288.93 94.5929 288.321 94.5929 287.512 94.4671L287.214 112.706C287.104 114.969 287.326 117.237 287.873 119.435C288.708 121.936 290.438 124.032 292.723 125.309C294.915 126.7 297.448 127.445 300.036 127.46C301.595 127.552 303.153 127.258 304.575 126.604C305.779 125.647 306.876 124.559 307.846 123.359L309.898 123.9C309.873 124.025 309.873 124.154 309.9 124.279C309.926 124.404 309.978 124.522 310.051 124.626C310.125 124.73 310.219 124.817 310.327 124.883C310.435 124.948 310.556 124.991 310.681 125.007C310.648 125.262 310.561 125.506 310.426 125.723C310.291 125.94 310.11 126.125 309.898 126.265V126.642C311.838 126.793 313.628 126.881 315.345 126.881L316.315 102.983L315.892 126.881H316.066C316.341 125.907 316.487 124.9 316.501 123.888C316.613 122.127 316.675 121.007 316.675 120.517L316.8 100.869C316.8 100.14 316.924 99.033 317.036 97.5739H317.16C317.404 96.2006 317.504 94.8051 317.459 93.4106C317.436 92.9916 317.436 92.5717 317.459 92.1527C317.876 93.477 318.061 94.8646 318.006 96.2532C318.006 97.8381 318.006 100.027 318.006 102.668C318.006 105.938 317.944 107.511 317.944 107.385L318.255 96.3035L318.491 96.1903C318.585 96.5103 318.648 96.839 318.678 97.1714L318.541 127.686ZM284.714 119.058C284.292 114.727 284.089 110.378 284.105 106.026V114.466C284.179 116.012 284.383 117.547 284.714 119.058V119.058ZM285.684 117.963L285.386 111.045V114.819L285.684 117.963ZM295.683 92.3163C294.989 91.2424 294.062 90.3432 292.972 89.6874H289.577L288.495 89.9264C292.226 90.4547 294.514 91.2597 295.447 92.3163C295.534 95.1715 295.546 98.7186 295.447 102.97L295.683 92.3163ZM307 124.567C305.147 126.856 302.287 127.95 298.407 127.875C298.681 127.875 298.956 127.896 299.227 127.938C299.48 127.951 299.733 127.951 299.986 127.938C302.61 127.938 304.5 127.397 305.669 126.29C306.042 125.831 306.459 125.409 306.913 125.032L307 124.567ZM313.218 127.082C312.825 127.013 312.439 126.912 312.062 126.781H309.761L309.885 126.969C310.789 127.073 311.699 127.111 312.609 127.082H313.218Z" fill="#D7D7D7"/>
<path d="M341.411 92.2533C341.334 93.8523 341.067 95.436 340.615 96.9702C340.06 99.2091 339.438 100.555 338.75 101.008C337.147 101.031 335.6 101.603 334.36 102.63C333.431 103.911 332.989 105.487 333.116 107.07C333.116 107.636 333.017 108.781 332.942 110.492C332.83 111.612 332.788 112.737 332.818 113.863L333.116 123.837C333.279 125.681 332.785 127.524 331.723 129.032L331.611 129.46C331.978 129.233 332.32 128.967 332.631 128.667C333.079 128.252 333.303 127.975 333.303 127.812L333.415 116.064L333.539 127.812C332.813 129.048 331.768 130.061 330.517 130.743L330.393 130.567H322.533C321.721 130.018 320.97 129.381 320.294 128.667C319.767 127.853 319.53 126.881 319.623 125.913L319.809 113.611C319.809 112.353 319.747 110.353 319.623 107.737C319.499 105.121 319.449 103.171 319.449 101.863C319.372 100.413 319.447 98.9581 319.673 97.5236L319.971 97.7626C320.636 101.073 320.944 104.447 320.891 107.825C321.002 107.555 321.045 107.261 321.016 106.97C321.016 105.574 320.941 103.196 320.779 99.7499C320.568 96.6808 320.493 94.2784 320.531 92.53C320.963 93.178 321.177 93.9502 321.14 94.7312C321.14 96.2406 321.078 97.0079 321.078 97.0582C321.078 97.423 321.339 98.8695 321.737 101.398C321.998 102.83 322.144 104.281 322.172 105.737V107.397L322.545 107.033C322.659 106.719 322.714 106.386 322.707 106.052C322.707 105.599 322.67 104.945 322.595 104.089C322.508 103.234 322.471 102.58 322.471 102.127H322.695C322.984 103.126 323.152 104.156 323.192 105.196C323.192 106.089 323.192 107.234 323.192 108.618V111.737C323.192 112.995 323.279 115.171 323.441 118.353C323.553 121.12 323.602 123.309 323.553 124.894L323.677 124.957L323.739 124.894C323.739 124.491 323.801 123.774 323.801 122.755C323.801 121.737 323.739 120.366 323.615 118.403C323.491 116.441 323.441 114.982 323.441 114.001L323.801 114.064C323.801 113.611 323.801 112.957 323.739 112.077C323.677 111.196 323.677 110.542 323.677 110.089C323.636 109.317 323.759 108.545 324.038 107.825C324.975 109.779 325.298 115.51 325.008 125.02C326.239 125.244 327.487 125.366 328.739 125.384L329.037 109.234C329.075 107.292 329.321 105.361 329.771 103.473C330.184 101.873 331.106 100.454 332.395 99.4355C333.567 98.3177 335.112 97.6849 336.723 97.662H337.083C337.568 97.662 337.817 96.7437 337.817 94.9073C337.817 93.725 337.73 92.5426 337.693 91.3603H337.021C336.176 91.3764 335.337 91.5206 334.534 91.7879C333.708 91.9994 332.981 92.4981 332.482 93.1967V94.7941L331.997 94.7312V95.2218H331.201C331.201 95.2218 330.704 95.1212 329.821 94.9073L329.758 94.4168C328.863 93.9388 328.403 93.6872 328.366 93.6872C328.801 93.0332 329.248 92.4294 329.696 91.8508L328.664 91.6747H329.261C329.696 91.6747 329.982 91.6747 330.107 91.4232C328.499 91.324 326.9 91.1181 325.319 90.8068H325.804C324.995 90.8068 323.814 90.6559 322.234 90.4924L322.782 90.0647H330.169C329.274 89.8671 328.361 89.7659 327.445 89.7628C325.866 89.7628 324.958 89.7628 324.597 89.6999V89.5113C325.225 89.3129 325.879 89.2111 326.537 89.2094H330.169L331.313 90.3666C332.681 88.9075 335.131 88.1654 338.638 88.1654C339.335 88.716 340 89.3082 340.628 89.9389C341.152 90.592 341.43 91.4123 341.411 92.2533V92.2533ZM321.924 96.8444L321.65 97.6368L321.016 91.3477C321.567 93.1289 321.873 94.9786 321.924 96.8444ZM330.393 130.076C329.755 130.229 329.106 130.33 328.453 130.378L322.956 130.076H330.393ZM331.972 116.554V109.272C331.799 111.696 331.799 114.13 331.972 116.554V116.554ZM337.718 90.7817H336.984C336.154 90.826 335.338 91.0132 334.571 91.3351C333.77 91.5594 333.04 91.9932 332.457 92.5929C333.642 91.7146 335.046 91.1875 336.511 91.071C336.928 91.0554 337.338 90.9571 337.718 90.7817V90.7817ZM337.531 98.0016H336.984C335.949 98.1549 334.948 98.4868 334.024 98.9827C335.156 98.5317 336.331 98.2028 337.531 98.0016V98.0016Z" fill="#D7D7D7"/>
<path d="M377.165 124.68C377.254 127.518 376.726 130.341 375.617 132.949C374.508 135.557 372.846 137.887 370.748 139.774C366.537 143.593 361.03 145.621 355.377 145.434C351.491 145.431 347.712 144.141 344.619 141.761C341.405 139.441 338.922 136.23 337.469 132.516C337.831 131.814 338.247 131.141 338.712 130.504C338.962 130.195 339.28 129.951 339.641 129.791C340.002 129.632 340.396 129.561 340.789 129.585L346.51 129.95L346.273 129.711C343.294 127.605 340.782 124.893 338.899 121.749C337.185 118.493 336.328 114.846 336.412 111.158C336.384 108.444 336.9 105.752 337.928 103.245C338.956 100.737 340.475 98.466 342.393 96.5677C344.235 94.5973 346.459 93.0337 348.927 91.9751C351.394 90.9166 354.052 90.3861 356.732 90.4169C360.277 90.4137 363.73 91.5502 366.594 93.6621C367.042 93.5866 367.303 93.2344 367.39 92.6181H372.949C371.283 92.9792 369.577 93.1146 367.875 93.0206L367.266 93.3099V93.4231L375.014 93.1716C372.584 93.3393 369.919 93.6663 367.017 94.1527C368.19 95.0848 369.106 96.3063 369.678 97.6997C368.689 98.4656 367.526 98.9713 366.296 99.1714L366.171 98.9827L365.811 99.1714L365.574 98.9827L364.604 99.1714L364.903 98.4418L365.139 98.8695H365.388C365.873 98.8695 366.109 98.2532 366.109 97.0331C366.109 96.3413 365.388 95.6243 363.933 94.8822L363.759 94.769V94.8822C362.84 94.4412 361.858 94.1525 360.849 94.0269L361.209 94.2784C360.312 94.0893 359.401 93.9674 358.486 93.9137C353.786 93.7397 349.178 95.2548 345.478 98.1903C343.665 99.6867 342.22 101.588 341.255 103.744C340.291 105.9 339.833 108.253 339.919 110.618C339.84 115.322 341.428 119.899 344.396 123.523C345.794 125.37 347.599 126.863 349.667 127.883C351.735 128.902 354.009 129.421 356.309 129.397C357.84 129.38 359.355 129.091 360.787 128.541C362.25 128.157 363.535 127.267 364.418 126.026C362.206 128.064 359.301 129.159 356.309 129.082C354.071 129.089 351.861 128.577 349.848 127.588C347.835 126.598 346.072 125.156 344.694 123.372C341.768 119.912 340.178 115.498 340.217 110.945C340.049 107.91 340.833 104.899 342.456 102.341L342.58 102.895C343.506 101.227 344.714 99.7372 346.149 98.4921C348.122 96.6054 349.677 95.7669 350.813 95.9765L350.626 96.2909C344.582 100.073 341.556 105.104 341.548 111.385C341.548 118.093 344.172 122.827 349.42 125.586C351.667 126.928 354.191 127.725 356.795 127.913C360.103 127.913 363.075 126.277 365.686 123.02L369.566 124.73V125.158C369.566 125.284 369.28 126.416 368.721 128.466C368.072 131.114 366.489 133.432 364.269 134.982C362.016 136.527 359.342 137.323 356.62 137.258C354.972 137.292 353.338 136.957 351.832 136.277C350.412 135.523 349.037 134.683 347.716 133.761L342.157 133.636L342.095 133.761C343.449 136.475 345.665 138.65 348.388 139.937C350.996 141.411 353.931 142.19 356.919 142.201C361.002 142.183 364.942 140.683 368.024 137.975C371.222 135.46 373.352 131.808 373.981 127.762C374.425 124.291 374.645 120.796 374.64 117.297C374.69 113.825 374.732 110.337 374.765 106.831L374.591 124.944C374.573 127.271 374.076 129.569 373.132 131.692C372.188 133.814 370.817 135.714 369.106 137.271C365.773 140.572 361.285 142.408 356.62 142.378C354.299 142.348 352.003 141.891 349.843 141.032H349.594C351.891 142.251 354.463 142.841 357.056 142.742C361.123 142.74 365.054 141.263 368.136 138.579C371.342 136.029 373.546 132.409 374.354 128.365C374.566 127.294 374.708 126.21 374.777 125.12C374.777 120.995 374.864 116.881 374.902 112.756C374.891 108.625 375.111 104.497 375.561 100.391H375.685C375.91 99.4707 375.99 98.5198 375.921 97.5739C375.885 96.4529 375.926 95.3307 376.046 94.2155C376.403 95.7781 376.565 97.3794 376.531 98.9827C376.531 100.819 376.531 103.297 376.531 106.391V111.838L376.829 98.9198H377.066C377.161 99.218 377.224 99.5259 377.252 99.838L377.165 124.68ZM369.964 111.636C370.013 113.292 369.739 114.94 369.156 116.488C368.573 118.036 367.694 119.452 366.569 120.655C365.44 121.849 364.075 122.788 362.561 123.41C361.048 124.032 359.422 124.324 357.789 124.265C356.21 124.328 354.637 124.046 353.175 123.438C351.714 122.83 350.399 121.911 349.32 120.743C347.149 118.308 345.999 115.115 346.112 111.838C346.08 109.604 346.712 107.413 347.927 105.549C349.17 103.714 351.047 102.417 353.188 101.913C351.207 102.788 349.451 104.109 348.052 105.775C346.821 107.563 346.205 109.711 346.298 111.888C346.202 113.805 346.632 115.712 347.542 117.397C347.542 117.397 347.368 116.592 347.032 115.095C346.76 114.088 346.585 113.056 346.51 112.014C346.509 109.538 347.328 107.134 348.835 105.184C349.482 104.236 350.345 103.461 351.352 102.924C352.359 102.388 353.48 102.106 354.618 102.102L356.919 102.341C357.463 102.158 358.037 102.077 358.61 102.102C359.168 102.073 359.725 102.154 360.252 102.341H358.25C356.319 102.407 354.432 102.932 352.74 103.876H352.865C353.619 103.543 354.413 103.315 355.228 103.196L355.887 103.259L355.65 103.561C351.335 104.882 349.171 107.536 349.171 111.548C349.127 113.818 349.951 116.017 351.472 117.686C352.162 118.555 353.037 119.255 354.032 119.734C355.027 120.213 356.116 120.459 357.217 120.454C358.748 120.386 360.237 119.927 361.545 119.12C363.137 118.227 363.958 117.271 364.032 116.227C362.217 118.743 360.078 120.001 357.615 120.001C357.128 119.97 356.644 119.89 356.173 119.762H356.894C357.924 119.844 358.96 119.703 359.932 119.347C360.904 118.991 361.789 118.429 362.529 117.699C363.268 116.969 363.845 116.087 364.22 115.113C364.595 114.139 364.76 113.095 364.704 112.051C364.79 110.425 364.354 108.815 363.46 107.46C362.358 106.233 361.049 105.215 359.593 104.454C359.792 104.177 359.991 104.027 360.202 104.027C360.983 104.084 361.74 104.317 362.42 104.708C363.1 105.1 363.685 105.641 364.132 106.291V106.177C363.316 105.175 362.282 104.379 361.11 103.85C359.916 103.385 358.657 103.113 357.379 103.045C357.478 102.918 357.608 102.817 357.756 102.754C357.904 102.69 358.065 102.665 358.225 102.681C358.912 102.695 359.598 102.758 360.277 102.869C361.334 102.995 362.018 103.045 362.341 103.045L361.918 102.869C362.101 102.864 362.283 102.9 362.45 102.974C362.618 103.048 362.768 103.158 362.888 103.297L362.341 103.171C362.892 103.364 363.398 103.67 363.826 104.071C364.254 104.471 364.595 104.957 364.828 105.498L365.139 104.945C365.056 104.618 364.31 103.926 362.901 102.869C364.505 103.071 365.885 104.391 367.005 106.844C367.892 108.697 368.367 110.723 368.397 112.781C368.297 114.781 367.555 116.693 366.283 118.227C365.097 119.805 363.619 121.133 361.931 122.139L361.868 122.328C363.862 121.559 365.574 120.191 366.775 118.407C367.976 116.624 368.607 114.511 368.584 112.353C368.556 111.711 368.455 111.074 368.286 110.454C368.111 109.856 368.006 109.24 367.975 108.618V108.253L368.223 108.316L366.569 104.555H366.868C367.639 104.555 368.385 105.561 369.106 107.561C369.603 108.87 369.892 110.249 369.964 111.649V111.636ZM358.225 134.101H357.988L356.471 134.164C354.049 134.181 351.712 133.258 349.942 131.585C350.739 132.468 351.712 133.17 352.797 133.644C353.881 134.119 355.053 134.356 356.235 134.34L358.225 134.101ZM366.147 94.9325C364.132 92.6936 361.068 91.5741 356.956 91.5741C354.595 91.612 352.26 92.0675 350.054 92.92L350.241 92.9829C352.335 92.206 354.54 91.7811 356.77 91.7251C360.177 91.619 363.507 92.7627 366.147 94.9451V94.9325ZM362.416 94.0143C360.534 93.3179 358.549 92.9479 356.546 92.92C354.693 93.0496 352.852 93.3144 351.037 93.7124L351.944 94.0143C352.78 93.9819 353.612 93.8809 354.432 93.7124C355.251 93.5446 356.083 93.4436 356.919 93.4105C358.243 93.4296 359.56 93.5941 360.849 93.9011L360.724 93.6495C361.291 93.7391 361.852 93.8652 362.403 94.0269L362.416 94.0143ZM360.836 131.585C359.367 132.047 357.836 132.276 356.297 132.265C354.768 132.213 353.249 131.985 351.77 131.585C353.256 132.155 354.832 132.449 356.421 132.453C357.937 132.553 359.453 132.258 360.824 131.598L360.836 131.585ZM361.57 131.963C360.139 132.431 358.656 132.718 357.155 132.818C355.758 132.838 354.361 132.754 352.977 132.567C354.015 133.068 355.147 133.342 356.297 133.372C358.151 133.367 359.974 132.886 361.595 131.975L361.57 131.963ZM366.283 130.189C365.554 131.512 364.539 132.652 363.314 133.523C362.089 134.395 360.685 134.975 359.207 135.221H359.63C361.022 135.067 362.329 134.468 363.361 133.51C364.569 132.648 365.565 131.516 366.271 130.202L366.283 130.189Z" fill="#D7D7D7"/>
<path d="M419.572 110.19C419.667 111.313 419.438 112.44 418.913 113.435C418.177 114.204 417.387 114.918 416.55 115.573C417.483 116.957 417.943 117.674 417.943 117.712C417.943 118.491 416.895 120.043 414.797 122.366C413.486 123.874 412.051 125.267 410.507 126.529C406.995 129.015 402.805 130.334 398.518 130.302C394.36 130.363 390.291 129.081 386.903 126.642C383.52 124.172 380.881 120.802 379.279 116.907C378.432 114.365 378.065 111.686 378.197 109.007C378.085 106.11 378.6 103.224 379.707 100.549C380.813 97.8746 382.484 95.4769 384.602 93.5237C388.948 89.6877 394.568 87.6567 400.334 87.8383C399.973 87.8146 399.612 87.8146 399.252 87.8383C392.835 87.8383 387.752 89.8173 384.005 93.7752C380.481 97.4481 378.342 102.567 377.588 109.133V108.328C377.499 105.587 377.997 102.859 379.046 100.33C380.096 97.8007 381.673 95.5306 383.669 93.6746C385.579 91.6749 387.869 90.0868 390.402 89.0059C392.934 87.9251 395.657 87.3739 398.406 87.3855C401.311 87.2904 404.201 87.8376 406.876 88.989C409.55 90.1404 411.943 91.8683 413.889 94.052C417.738 98.5078 419.77 104.276 419.572 110.19V110.19ZM382.003 119.787C379.911 116.024 378.887 111.749 379.043 107.435L378.981 111.209C379.081 112.765 379.429 114.294 380.013 115.737C380.395 117.211 381.072 118.589 382.003 119.787V119.787ZM414.61 109.812C414.572 106.488 413.653 103.235 411.949 100.391C410.451 97.4019 407.939 95.0578 404.873 93.7878C402.491 93.02 399.997 92.6669 397.498 92.7438C395.381 92.6945 393.279 93.12 391.344 93.99C389.409 94.8599 387.688 96.1526 386.306 97.7751C383.498 100.997 381.989 105.167 382.077 109.46C382.053 111.73 382.481 113.981 383.335 116.079C384.19 118.178 385.454 120.08 387.052 121.674C388.587 123.314 390.442 124.614 392.499 125.493C394.556 126.372 396.77 126.81 399.003 126.78C402.122 126.803 405.184 125.931 407.833 124.265C410.537 122.585 412.785 120.251 414.374 117.473L406.502 117.284C405.2 118.144 403.846 118.921 402.448 119.611C401.005 119.971 399.517 120.115 398.033 120.039C397.354 120.037 396.68 119.913 396.043 119.674C396.913 119.67 397.781 119.729 398.642 119.85C402.274 119.85 404.877 118.852 406.452 116.856C405.321 117.473 404.214 118.114 403.144 118.693C401.887 119.352 400.481 119.669 399.065 119.611C397.733 119.684 396.402 119.446 395.175 118.916C393.948 118.386 392.858 117.578 391.989 116.554H392.287C391.502 115.768 390.847 114.859 390.347 113.863C390.072 113.942 389.788 113.985 389.502 113.988H389.079V113.926L390.236 113.624C390.097 113.381 390.012 113.11 389.987 112.831C389.968 112.71 389.968 112.587 389.987 112.466C390.31 112.58 390.571 112.957 390.77 113.561C394.974 113.36 397.225 113.259 397.548 113.259C397.922 113.246 398.294 113.31 398.642 113.448L391.019 113.875L391.143 114.114H391.504C392.35 114.114 393.432 114.114 394.762 114.114C396.503 114.026 397.585 113.988 398.033 113.988L401.913 113.385C404.333 113.016 406.78 112.869 409.226 112.944L414.374 113.133L413.64 112.517C412.554 112.441 409.893 112.441 405.656 112.517L405.905 112.341C409.288 111.926 411.464 111.724 412.434 111.724C413.104 111.716 413.773 111.758 414.436 111.85C414.484 111.517 414.513 111.181 414.523 110.844C414.61 110.416 414.61 110.064 414.61 109.812V109.812ZM416.19 108.781C416.017 104.08 414.093 99.6182 410.804 96.2915C407.515 92.9648 403.104 91.0191 398.456 90.8445C396.264 90.7955 394.085 91.2048 392.056 92.0468C390.028 92.8887 388.193 94.1452 386.666 95.7375C389.601 92.8025 393.573 91.3351 398.58 91.3351C401.284 91.3264 403.95 91.9782 406.351 93.2352C408.752 94.4923 410.818 96.3172 412.372 98.555C413.102 99.5217 413.751 100.548 414.312 101.624C414.947 102.624 415.371 103.746 415.556 104.92L415.493 105.171L415.257 105.045V105.347C415.276 106.056 415.346 106.762 415.469 107.46C415.585 108.117 415.655 108.781 415.68 109.448C415.683 109.924 415.62 110.398 415.493 110.856H416.103C416.177 110.167 416.206 109.474 416.19 108.781V108.781ZM408.442 103.938C408.334 104.101 408.19 104.235 408.022 104.331C407.853 104.427 407.665 104.482 407.472 104.492C407.432 104.86 407.432 105.231 407.472 105.599C407.342 105.603 407.214 105.557 407.115 105.471C407.016 105.385 406.953 105.265 406.937 105.133C406.85 104.832 406.713 104.681 406.502 104.681L406.328 105.108C405.999 104.851 405.713 104.54 405.482 104.19C405.133 104.423 404.768 104.629 404.388 104.806H404.637L404.326 105.184L403.903 105.058L404.388 104.869H401.901C401.975 105.284 402.062 105.486 402.137 105.486C402.212 105.486 402.983 105.423 403.953 105.297L404.077 105.548C402.892 105.859 401.667 105.982 400.446 105.913C399.611 105.939 398.779 106.032 397.958 106.19C397.162 106.339 396.355 106.432 395.546 106.467C394.775 106.44 394.007 106.368 393.245 106.253C392.463 106.129 391.674 106.057 390.882 106.039C390.217 106.019 389.551 106.057 388.892 106.152C390.329 106.415 391.785 106.558 393.245 106.58C393.925 106.58 394.932 106.53 396.267 106.429C397.598 106.328 398.593 106.278 399.239 106.278L399.115 106.58C399.388 106.594 399.662 106.594 399.936 106.58C400.203 106.539 400.473 106.518 400.744 106.517C401.089 106.524 401.425 106.628 401.714 106.819C401.391 107.473 400.346 107.838 398.568 107.926C399.662 107.838 398.493 107.8 395.061 107.8C394.692 107.816 394.326 107.866 393.966 107.951C393.611 108.035 393.249 108.085 392.884 108.102C392.202 108.074 391.523 107.981 390.857 107.825C389.949 107.649 389.29 107.536 388.892 107.498L386.654 104.429C387.624 102.21 389.145 100.282 391.069 98.8317C393.064 97.5899 395.382 96.985 397.722 97.0959C402.556 97.0959 405.801 98.9491 407.46 102.655C405.122 99.1084 402.158 97.3349 398.568 97.3349C397.899 97.3017 397.229 97.3653 396.578 97.5236C398.748 97.6298 400.898 97.9972 402.983 98.6179C404.951 99.6389 406.497 101.332 407.348 103.398H408.007C407.798 103.619 407.614 103.864 407.46 104.127C407.795 104.113 408.126 104.05 408.442 103.938ZM390.41 101.737C390.043 101.944 389.732 102.238 389.502 102.593H389.875L390.41 101.737ZM393.68 100.819H393.32C392.934 100.948 392.579 101.157 392.277 101.432C391.975 101.707 391.733 102.042 391.566 102.416C392.188 101.77 392.9 101.219 393.68 100.781V100.819ZM406.266 114.341L391.566 114.592C392.967 117.108 395.529 118.332 399.252 118.265H399.849C396.018 118.265 393.44 117.141 392.113 114.894V114.781L395.148 116.58C396.196 117.184 397.386 117.493 398.593 117.473C400.526 117.591 402.438 117.001 403.978 115.812C402.221 115.854 400.463 115.774 398.717 115.573L398.53 115.385C399.7 114.976 400.925 114.752 402.162 114.718C403.405 114.718 404.649 114.617 405.893 114.529L406.266 114.341ZM403.903 102.228C402.405 101.137 400.612 100.54 398.767 100.517C397.668 100.521 396.583 100.761 395.583 101.222C394.563 101.687 393.544 102.152 392.536 102.593H399.314L403.903 102.228ZM414.921 117.473H414.561C412.945 120.453 410.532 122.912 407.596 124.567C404.749 126.4 401.403 127.28 398.033 127.082C398.577 127.158 399.125 127.2 399.675 127.208C402.868 127.176 405.981 126.196 408.629 124.391C411.292 122.685 413.463 120.299 414.921 117.473ZM405.122 103.574L404.997 103.272H404.637C404.144 103.289 403.655 103.37 403.182 103.511C402.373 103.674 401.938 103.775 401.727 103.825H402.97C403.095 103.825 403.878 103.737 405.122 103.574ZM406.204 112.882C405.072 112.995 404.226 113.058 403.716 113.058C404.119 112.911 404.536 112.809 404.96 112.756L406.204 112.882ZM414.499 116.982H410.979C411.676 116.982 412.683 117.045 414.014 117.158L414.499 116.982Z" fill="#D7D7D7"/>
<path d="M442.567 92.2533C442.496 93.8519 442.233 95.4358 441.784 96.9702C441.211 99.2091 440.54 100.555 439.906 101.008C438.303 101.031 436.756 101.603 435.516 102.63C434.587 103.911 434.145 105.487 434.272 107.07C434.272 107.636 434.16 108.781 434.086 110.492C433.973 111.612 433.932 112.738 433.961 113.863L434.272 123.837C434.43 125.681 433.936 127.522 432.879 129.032L432.755 129.46C433.126 129.234 433.472 128.968 433.787 128.667C434.222 128.252 434.446 127.975 434.446 127.812L434.571 116.064L434.695 127.812C433.965 129.049 432.916 130.062 431.66 130.743L431.549 130.567H423.676C422.864 130.018 422.114 129.381 421.438 128.667C420.909 127.854 420.676 126.88 420.779 125.913L420.953 113.611C420.953 112.353 420.891 110.353 420.779 107.737C420.667 105.121 420.592 103.171 420.592 101.863C420.509 100.412 420.589 98.9565 420.829 97.5236L421.115 97.7626C421.779 101.074 422.092 104.447 422.047 107.825C422.145 107.552 422.183 107.26 422.159 106.97C422.159 105.574 422.085 103.196 421.923 99.7499C421.724 96.6809 421.637 94.2784 421.687 92.5301C422.106 93.1839 422.314 93.9528 422.284 94.7312C422.284 96.2406 422.221 97.0079 422.221 97.0582C422.221 97.423 422.483 98.8695 422.893 101.398C423.151 102.83 423.292 104.281 423.316 105.737V107.397L423.776 107.07C423.884 106.755 423.939 106.423 423.938 106.089C423.938 105.637 423.938 104.982 423.813 104.127C423.689 103.272 423.689 102.618 423.689 102.165H423.913C424.208 103.163 424.379 104.194 424.423 105.234C424.423 106.127 424.423 107.272 424.423 108.655V111.775C424.423 113.033 424.497 115.209 424.659 118.391C424.783 121.158 424.821 123.347 424.783 124.932L424.908 124.994V124.932C424.943 124.219 424.943 123.506 424.908 122.793C424.908 121.85 424.908 120.403 424.734 118.441C424.559 116.479 424.547 115.02 424.547 114.039L424.908 114.102C424.908 113.649 424.908 112.995 424.908 112.114C424.908 111.234 424.908 110.58 424.908 110.127C424.86 109.355 424.983 108.581 425.268 107.863C426.189 109.817 426.512 115.548 426.238 125.057C427.47 125.283 428.718 125.405 429.969 125.422L430.28 109.272C430.308 107.33 430.55 105.398 431.001 103.511C431.413 101.906 432.341 100.486 433.638 99.4732C434.81 98.3554 436.355 97.7227 437.966 97.6997H438.326C438.811 97.6997 439.048 96.7815 439.048 94.9451C439.048 93.7627 438.973 92.5804 438.923 91.398H438.264C437.419 91.4155 436.58 91.5596 435.777 91.8257C434.951 92.0372 434.224 92.5358 433.725 93.2344V94.8319L433.24 94.769V95.2595H432.456C432.456 95.2595 431.947 95.1589 431.064 94.9451L431.001 94.4545C430.118 93.9766 429.646 93.725 429.609 93.725C430.056 93.0709 430.491 92.4672 430.939 91.8886L429.907 91.7125H430.579C431.026 91.7125 431.3 91.7125 431.424 91.4609C429.821 91.3616 428.225 91.1557 426.649 90.8446H427.134C426.325 90.8446 425.131 90.6936 423.565 90.5301L424.099 90.1025H431.486C430.592 89.9049 429.679 89.8037 428.763 89.8006C427.196 89.8006 426.276 89.8006 425.915 89.7377V89.549C426.539 89.3498 427.189 89.248 427.843 89.2471H431.474L432.631 90.4043C433.998 88.9453 436.436 88.2032 439.943 88.2032C440.64 88.7589 441.309 89.3509 441.945 89.9767C442.404 90.641 442.624 91.4448 442.567 92.2533V92.2533ZM423.08 96.8444L422.806 97.6368L422.172 91.3477C422.73 93.1273 423.035 94.978 423.08 96.8444V96.8444ZM431.561 130.076C430.923 130.229 430.275 130.33 429.621 130.378L424.112 130.076H431.561ZM433.128 116.554V109.272C432.955 111.696 432.955 114.13 433.128 116.554V116.554ZM438.874 90.7817H438.152C437.318 90.8243 436.498 91.0115 435.727 91.3351C434.927 91.5632 434.199 91.9965 433.613 92.593C434.799 91.7163 436.203 91.1895 437.667 91.071C438.084 91.0568 438.494 90.9584 438.874 90.7817V90.7817ZM438.699 98.0016H438.152C437.113 98.1525 436.107 98.4845 435.18 98.9827C436.317 98.5339 437.496 98.2051 438.699 98.0016V98.0016Z" fill="#D7D7D7"/>
<path d="M222.31 128.152L219.039 131.397C217.686 131.366 216.333 131.408 214.985 131.523C213.057 131.636 211.726 131.699 210.993 131.699C210.45 131.705 209.913 131.588 209.422 131.355C208.931 131.121 208.499 130.779 208.157 130.353C207.595 130.568 206.986 130.633 206.391 130.541L206.279 130.29C206.494 129.888 206.735 129.502 207.001 129.133C206.764 128.931 206.416 128.604 205.969 128.152V108.693H202.412C197.968 111.058 194.942 112.24 193.333 112.24C193.416 115.51 193.416 120.445 193.333 127.045V128.089C192.214 129.145 191.095 130.29 190.013 131.523C189.329 131.523 188.322 131.523 187.016 131.523C185.71 131.523 184.765 131.585 184.205 131.585C182.278 131.726 180.35 131.325 178.634 130.428C177.141 129.409 176.395 127.523 176.395 124.793L176.271 90.832C176.313 90.2669 176.439 89.7115 176.644 89.1842C177.398 90.4421 177.879 99.2133 178.087 115.498C178.235 115.26 178.321 114.987 178.335 114.705L177.614 77.8009C177.658 77.3702 177.759 76.9472 177.912 76.5431C178.201 78.1575 178.343 79.7954 178.335 81.436C178.335 84.4171 178.634 88.983 179.119 95.2721C179.533 101.142 179.736 105.708 179.728 108.97C179.728 110.856 179.728 112.668 179.604 114.416L179.852 113.875L180.275 113.435C180.35 113.284 180.387 109.024 180.387 100.656C181.336 108.6 181.631 116.611 181.27 124.604H181.817C181.727 121.56 181.847 118.513 182.178 115.485C182.468 115.938 182.812 118.936 183.21 124.479C183.69 124.572 184.177 124.614 184.665 124.604C185.231 124.606 185.797 124.564 186.357 124.479C186.357 120.194 186.44 113.77 186.605 105.209C187.736 103.981 188.949 102.833 190.237 101.775L198.221 101.599L208.083 101.838C208.469 101.861 208.853 101.924 209.227 102.027C209.9 102.542 210.509 103.138 211.042 103.8C211.637 104.351 212.148 104.986 212.56 105.687L212.311 120.781C215.159 114.761 216.666 108.183 216.726 101.511L217.335 75.4614H210.806C210.806 85.9013 210.645 92.6348 210.321 95.662C209.913 96.024 209.527 96.4105 209.165 96.8192C208.341 96.9413 207.509 96.9834 206.677 96.945L197.363 96.5173C195.945 96.5173 194.552 96.5173 193.184 96.5173C191.802 96.5581 190.438 96.1957 189.254 95.4733L189.192 94.9199L189.677 79.9896L189.801 95.5991C190.324 82.0147 190.585 75.1176 190.585 74.9079C190.585 73.9772 190.336 73.4237 189.851 73.2602L187.986 73.0086C188.673 72.9927 189.358 72.9339 190.038 72.8325C188.383 72.6904 186.721 72.6694 185.063 72.7697C183.396 72.8815 181.722 72.7588 180.089 72.4049C180.947 71.8263 184.367 71.7131 190.386 72.0401L190.075 71.6628C188.674 71.6233 187.277 71.4803 185.896 71.2351C187.012 70.9934 188.15 70.8711 189.292 70.8704H190.199C191.206 71.9605 192.125 73.1298 192.948 74.3671C193.268 75.9343 193.352 77.5416 193.197 79.1342L192.774 92.7816H206.379V73.9143C207.075 73.1722 207.772 72.4552 208.505 71.7383C208.843 71.38 209.248 71.094 209.696 70.8974C210.145 70.7007 210.628 70.5974 211.117 70.5936C212.467 70.6418 213.807 70.8486 215.109 71.21C216.41 71.6214 217.747 71.9078 219.101 72.0653C219.872 72.5055 220.631 72.9835 221.402 73.474C221.694 73.8158 221.91 74.2177 222.035 74.6519C222.159 75.0862 222.19 75.5426 222.123 75.9897C222.123 77.6668 221.961 84.9496 221.638 97.8381C221.439 106.693 221.34 113.993 221.34 119.737C221.34 122.646 221.34 125.443 221.34 128.126L221.091 128.554L221.887 127.762L222.185 122.378L222.31 128.152ZM179.529 87.3352C179.494 88.0487 179.411 88.7589 179.28 89.461C179.032 87.4568 178.87 84.8489 178.795 81.6373C178.671 77.3859 178.592 74.7948 178.559 73.864C179.295 78.3141 179.616 82.8244 179.517 87.3352H179.529ZM179.778 97.2469C179.786 98.6588 179.865 100.069 180.014 101.473L180.139 99.3852C180.139 99.3852 180.027 98.7185 179.765 97.2469H179.778ZM181.705 126.441L181.109 125.825V126.441H181.705ZM186.369 126.994V126.617H184.006L186.369 126.994ZM210.931 105.611C210.554 104.974 210.084 104.397 209.538 103.901C208.902 103.473 208.149 103.261 207.386 103.297H190.771L189.926 103.473C189.215 103.99 188.583 104.609 188.048 105.31L187.936 106.115L188.172 121.347C188.172 111.67 188.293 106.345 188.533 105.372C188.819 104.228 190.025 103.662 192.164 103.662C193.98 103.662 196.691 103.741 200.298 103.901C203.904 104.06 206.619 104.144 208.443 104.152C209.737 104.152 210.383 104.991 210.383 106.668L210.557 120.567L210.931 105.611ZM189.789 126.416H188.359L188.234 127.208L188.595 127.636L189.789 126.416ZM210.358 75.4991C210.276 79.9854 210.052 86.6937 209.687 95.6243C209.519 95.8763 209.292 96.0835 209.028 96.228H207.535C207.088 96.228 201.421 96.1064 190.535 95.8633C193.416 96.3079 196.326 96.5349 199.241 96.5425H208.083C209.488 96.5425 210.209 96.0142 210.259 94.9451L210.358 75.4991ZM192.326 92.7564V87.8006L191.779 81.8008V92.7564H192.326ZM207.324 108.731H206.267V112.768C206.323 111.353 206.67 109.965 207.287 108.693L207.324 108.731ZM207.324 128.68C207.097 128.55 206.903 128.368 206.757 128.15C206.61 127.932 206.515 127.683 206.478 127.422C206.404 126.869 206.342 126.328 206.304 125.799V128.064L207.15 128.919L207.324 128.68ZM216.465 130.642C215.358 130.962 214.226 131.185 213.082 131.309H211.838C211.053 131.326 210.267 131.284 209.488 131.183L208.58 130.328H208.941C208.941 130.529 209.563 130.655 210.694 130.692C211.503 130.692 212.634 130.692 214.077 130.692L216.465 130.642ZM218.28 127.51L217.037 127.334L216.912 127.51H218.28ZM219.064 87.373L218.765 118.089H218.579L218.89 87.373H219.064ZM220.394 125.108V105.209C220.233 106.303 220.158 106.92 220.158 107.033L220.394 125.108Z" fill="#D7D7D7"/>
</svg>
